<?xml version="1.0" encoding="utf-8"?>
<!-- Generator: Adobe Illustrator 23.0.5, SVG Export Plug-In . SVG Version: 6.00 Build 0)  -->
<svg version="1.1" id="Layer_1" xmlns="http://www.w3.org/2000/svg" xmlns:xlink="http://www.w3.org/1999/xlink" x="0px" y="0px"
	 viewBox="0 0 828.85 806.81" style="enable-background:new 0 0 828.85 806.81;" xml:space="preserve">
<style type="text/css">
	.st0{fill:#FFC313;}
	.st1{clip-path:url(#SVGID_2_);}
	.st2{fill:none;stroke:#000000;stroke-width:7;stroke-linecap:round;stroke-linejoin:round;stroke-miterlimit:10;}
	.st3{fill:none;stroke:#000000;stroke-width:6;stroke-linecap:round;stroke-linejoin:round;stroke-miterlimit:10;}
</style>
<g>
	<g>
		<path class="st0" d="M431.75,622.36c-64.13,0-115.91-26.26-145.99-74l48.57-124.63c4-3.75,32.74-29.04,81.4-29.04
			c17.54,0,35.89,3.27,54.53,9.73c25.08,8.68,41.52,18.95,56.03,28.01c17.92,11.19,32.07,20.03,53.76,20.03
			c22.94,0,52.33-9.97,97.46-33.16c-3.34,12.31-11.34,38.42-25.77,67.24c-18.26,36.48-50.87,84.93-102.52,108.62
			C510.42,612.96,469.8,622.36,431.75,622.36z"/>
		<g>
			<path d="M415.73,398.19c17.14,0,35.1,3.21,53.37,9.53c24.71,8.55,40.97,18.71,55.32,27.67c17.66,11.03,32.92,20.56,55.61,20.56
				c22.27,0,50.23-9.04,91.89-29.91c-4.11,13.74-11.59,35.5-23.41,59.08c-11.52,22.98-24.85,43.17-39.62,60.02
				c-18.29,20.86-38.86,36.62-61.14,46.83c-38.34,17.58-78.45,26.88-116,26.88c-62.22,0-112.53-25.14-142.09-70.88l47.63-122.23
				C342.6,420.9,369.93,398.2,415.73,398.19L415.73,398.19 M415.72,391.19c-54.54,0-84.38,30.56-84.38,30.56l-49.48,126.97
				c32.52,52.86,88.17,77.14,149.89,77.14c38.65,0,79.69-9.52,118.92-27.52C652.55,551.62,682.8,412.6,682.8,412.6
				c-50.86,26.7-80.77,36.36-102.76,36.36c-37.63,0-52.08-28.27-108.64-47.85C450.7,393.95,432.1,391.19,415.72,391.19
				L415.72,391.19z M682.8,412.6L682.8,412.6L682.8,412.6z"/>
		</g>
	</g>
	<g>
		<defs>
			<path id="SVGID_1_" d="M331.34,421.75c0,0,50.44-51.66,140.06-20.64s73.53,83.87,211.4,11.49c0,0-30.26,139.02-132.13,185.74
				s-215.92,36.34-268.81-49.62L331.34,421.75z"/>
		</defs>
		<clipPath id="SVGID_2_">
			<use xlink:href="#SVGID_1_"  style="overflow:visible;"/>
		</clipPath>
		<g class="st1">
			<path d="M347.7,399.2c0,0,37.53,35.23,26.04,94.21c-11.49,58.98-85.02,124.85-85.02,124.85l-28.34-67.4l36-106.47L347.7,399.2z"
				/>
			<path d="M411.27,375.45c0,0,76.6,157.02-72,254.3l81.19,14.55c0,0,105.7-110.22,66.64-253.11L411.27,375.45z"/>
			<path d="M544.55,426c0,0,66.64,115.66-68.94,232.85s219.83-121.79,219.83-121.79l16.85-129.45l-19.15-39.83L544.55,426z"/>
		</g>
	</g>
	<g>
		<ellipse class="st0" cx="264.21" cy="466.22" rx="75.39" ry="81.14"/>
		<g>
			<path d="M264.21,388.58c39.64,0,71.89,34.83,71.89,77.64s-32.25,77.64-71.89,77.64s-71.89-34.83-71.89-77.64
				S224.56,388.58,264.21,388.58 M264.21,381.58c-43.57,0-78.89,37.89-78.89,84.64c0,46.74,35.32,84.64,78.89,84.64
				c43.57,0,78.89-37.89,78.89-84.64C343.1,419.47,307.78,381.58,264.21,381.58L264.21,381.58z"/>
		</g>
	</g>
	<path class="st2" d="M153.14,277.41c0,0-22.98-45.96,13.79-49.02s33.61,96.51,53.57,167.36"/>
	<path class="st2" d="M304.04,263.62c0,0,22.98-6.13,14.55-27.57s-62.81-22.21-54.38,42.89c8.43,65.11,10.66,103.4,10.66,103.4"/>
	<path class="st2" d="M387.57,394.04c0,0-30.68-86.76-7.7-148.03c22.98-61.28,72-8.05,72-8.05"/>
	<path class="st2" d="M448.04,394.04c0,0-25.28-128.88,18.38-182.5s83.54-25.61,91.91,0c9.96,30.45,10.96,113.71-56.18,202.77"/>
	<g>
		<g>
			<circle cx="229.33" cy="441.35" r="8.83"/>
		</g>
		<g>
			<circle cx="290.69" cy="430.58" r="8.83"/>
		</g>
		<path class="st3" d="M224.38,490.34c0,0,14.55,23.74,47.49,15.7s34.09-33.32,34.09-33.32"/>
		<path class="st3" d="M214.61,494.24c0,0,10.91-1.53,16.66-12.06"/>
		<path class="st3" d="M299.53,466.22c0,0,4.51,8.62,15.04,8.04"/>
	</g>
</g>
</svg>
